<?xml version="1.0" encoding="UTF-8" standalone="no"?>
<!DOCTYPE svg PUBLIC "-//W3C//DTD SVG 1.1//EN" "http://www.w3.org/Graphics/SVG/1.1/DTD/svg11.dtd">
<svg width="100%" height="100%" viewBox="0 0 75 103" version="1.1" xmlns="http://www.w3.org/2000/svg" xmlns:xlink="http://www.w3.org/1999/xlink" xml:space="preserve" xmlns:serif="http://www.serif.com/" style="fill-rule:evenodd;clip-rule:evenodd;stroke-miterlimit:10;">
    <g transform="matrix(1.12863,0,0,-1.12863,32.3133,40.4391)">
        <path d="M0,0L14.6,0" style="fill:none;fill-rule:nonzero;stroke:#000;stroke-width:2.22px;"/>
    </g>
    <g transform="matrix(1.12863,0,0,-1.12863,32.3133,48.5655)">
        <path d="M0,0L14.6,0" style="fill:none;fill-rule:nonzero;stroke:#000;stroke-width:2.22px;"/>
    </g>
    <g transform="matrix(1.12863,0,0,-1.12863,32.3133,56.5787)">
        <path d="M0,0L14.6,0" style="fill:none;fill-rule:nonzero;stroke:#000;stroke-width:2.22px;"/>
    </g>
    <g transform="matrix(1.12863,0,0,-1.12863,32.3133,72.7178)">
        <path d="M0,0L14.6,0" style="fill:none;fill-rule:nonzero;stroke:#000;stroke-width:2.22px;"/>
    </g>
    <g transform="matrix(1.12863,0,0,-1.12863,32.3133,80.7313)">
        <path d="M0,0L14.6,0" style="fill:none;fill-rule:nonzero;stroke:#000;stroke-width:2.22px;"/>
    </g>
    <g transform="matrix(1.12863,0,0,-1.12863,32.3133,64.5914)">
        <path d="M0,0L14.6,0" style="fill:none;fill-rule:nonzero;stroke:#000;stroke-width:2.22px;"/>
    </g>
    <g transform="matrix(1.12863,0,0,-1.12863,32.3133,88.7445)">
        <path d="M0,0L14.6,0" style="fill:none;fill-rule:nonzero;stroke:#000;stroke-width:2.22px;"/>
    </g>
    <g transform="matrix(0,1.12863,-1.12863,0,43.8817,15.8918)">
        <path d="M-2.95,2.95L2.95,2.95" style="fill:none;fill-rule:nonzero;stroke:#000;stroke-width:2.22px;stroke-linecap:round;"/>
    </g>
    <g transform="matrix(1.12863,0,0,-1.12863,3.42048,111.43)">
        <path d="M20.3,18.7L20.3,70.1L45.5,70.1L45.5,18.7" style="fill:none;fill-rule:nonzero;stroke:#000;stroke-width:2.22px;stroke-linejoin:round;"/>
    </g>
    <g transform="matrix(1.12863,0,0,-1.12863,3.42048,46.308)">
        <path d="M24.8,12.6L24.8,18.5L41,18.5L41,12.6" style="fill:none;fill-rule:nonzero;stroke:#000;stroke-width:2.22px;stroke-linejoin:round;"/>
    </g>
    <g transform="matrix(1.12863,0,0,-1.12863,3.42048,33.5545)">
        <path d="M28.3,12.5L37.5,12.5L37.5,7.3" style="fill:none;fill-rule:nonzero;stroke:#000;stroke-width:2.22px;stroke-linecap:round;stroke-linejoin:round;"/>
    </g>
    <g transform="matrix(1.12863,0,0,-1.12863,3.42048,135.244)">
        <path d="M1.2,39.8L1.2,70.1L15.2,70.1" style="fill:none;fill-rule:nonzero;stroke:#000;stroke-width:2.22px;stroke-linejoin:round;"/>
    </g>
    <g transform="matrix(0,1.12863,-1.12863,0,21.8735,76.4987)">
        <path d="M-2.45,2.45L2.45,2.45" style="fill:none;fill-rule:nonzero;stroke:#000;stroke-width:2.22px;"/>
    </g>
    <g transform="matrix(0,1.12863,-1.12863,0,15.3275,76.4987)">
        <path d="M-2.45,2.45L2.45,2.45" style="fill:none;fill-rule:nonzero;stroke:#000;stroke-width:2.22px;"/>
    </g>
    <g transform="matrix(0,1.12863,-1.12863,0,21.8735,65.4384)">
        <path d="M-2.45,2.45L2.45,2.45" style="fill:none;fill-rule:nonzero;stroke:#000;stroke-width:2.22px;"/>
    </g>
    <g transform="matrix(0,1.12863,-1.12863,0,15.3275,65.4384)">
        <path d="M-2.45,2.45L2.45,2.45" style="fill:none;fill-rule:nonzero;stroke:#000;stroke-width:2.22px;"/>
    </g>
    <g transform="matrix(0,1.12863,-1.12863,0,21.8735,87.4466)">
        <path d="M-2.45,2.45L2.45,2.45" style="fill:none;fill-rule:nonzero;stroke:#000;stroke-width:2.22px;"/>
    </g>
    <g transform="matrix(0,1.12863,-1.12863,0,15.3275,87.4466)">
        <path d="M-2.45,2.45L2.45,2.45" style="fill:none;fill-rule:nonzero;stroke:#000;stroke-width:2.22px;"/>
    </g>
    <g transform="matrix(1.12863,0,0,-1.12863,3.42048,146.304)">
        <path d="M58.5,49.6L58.5,70.1L50.9,70.1" style="fill:none;fill-rule:nonzero;stroke:#000;stroke-width:2.22px;stroke-linejoin:round;"/>
    </g>
    <g transform="matrix(0,1.12863,-1.12863,0,64.987,76.4987)">
        <path d="M-2.45,2.45L2.45,2.45" style="fill:none;fill-rule:nonzero;stroke:#000;stroke-width:2.22px;"/>
    </g>
    <g transform="matrix(0,1.12863,-1.12863,0,64.987,87.4466)">
        <path d="M-2.45,2.45L2.45,2.45" style="fill:none;fill-rule:nonzero;stroke:#000;stroke-width:2.22px;"/>
    </g>
</svg>
