<?xml version="1.0" encoding="UTF-8" standalone="no"?>
<!DOCTYPE svg PUBLIC "-//W3C//DTD SVG 1.1//EN" "http://www.w3.org/Graphics/SVG/1.1/DTD/svg11.dtd">
<svg width="100%" height="100%" viewBox="0 0 82 68" version="1.1" xmlns="http://www.w3.org/2000/svg" xmlns:xlink="http://www.w3.org/1999/xlink" xml:space="preserve" xmlns:serif="http://www.serif.com/" style="fill-rule:evenodd;clip-rule:evenodd;stroke-linejoin:round;stroke-miterlimit:10;">
    <g transform="matrix(1,0,0,-1,5.76234,104.65)">
        <path d="M49.8,58.9L62,65.1C64.3,66.4 67.1,65.9 68.2,63.7C69.3,61.6 68.3,58.8 66,57.6L40.7,44.1L39.4,43.8L15.9,43.2C15.9,43.2 12.9,42.4 9.2,38.2" style="fill:none;fill-rule:nonzero;stroke:#000;stroke-width:2.5px;"/>
    </g>
    <g transform="matrix(1,0,0,-1,5.76234,94.75)">
        <path d="M0.8,40.7L11.5,50.5C16.7,54 22.9,52.1 22.9,52.1C25.9,51.3 31.5,51.1 31.5,51.1L40.7,51.1C43.5,51.1 45.7,49.1 45.7,46.7C45.7,44.3 43.5,42.3 40.7,42.3L27.9,42.3" style="fill:none;fill-rule:nonzero;stroke:#000;stroke-width:2.5px;stroke-linejoin:miter;"/>
    </g>
    <g transform="matrix(1,0,0,-1,5.76234,37.35)">
        <path d="M35,36.1L40.3,24.1L53.3,22.7L43.6,14L46.3,1.2L35,7.7L23.6,1.2L26.3,14L16.6,22.7L29.6,24.1L35,36.1Z" style="fill:none;fill-rule:nonzero;stroke:#000;stroke-width:2.5px;stroke-linecap:round;"/>
    </g>
</svg>
